# xmcd
#
# Track frame offsets:
# 150
# 11947
# 24622
# 39431
# 52206
# 65753
# 79783
# 95047
# 108523
# 122663
# 135441
# 149151
# 165790
# 184523
# 200260
# 219185
# 232910
# 249599
# 263508
# 277093
# 288302
# 297158
# 309923
# 328089
# 340202
#
# Disc length: 4786 seconds
#
# Revision: 0
# Processed by: cddbd v1.5.2PL0 Copyright (c) Steve Scherf et al.
# Submitted via: Audion 3.0.2 (http://www.panic.com/audion/)
#
DISCID=7312b019
DTITLE=Various Artist - The Big Blast, 100 Classic Big Bands
DYEAR=1900
DGENRE=
TTITLE0=Short Wave - Maynard Ferguson and His Orchestra
TTITLE1=Mayhem - Billy May and His Orchestra
TTITLE2=The Doodletown Fifers - Sauter-Finegan Orchestra
TTITLE3=Lover Man - Stan Kenton and His Orchestra
TTITLE4=Jump For Joe - Kenny Graham's Afro Cubists
TTITLE5=For Europeans Only - Louie Bellson and His Orchestra
TTITLE6=Topsy - Shorty Rogers
TTITLE7=I've Got My Love To keep Me Warm - Les Brown and His Band Of Renown
TTITLE8=The Great Lie - Harry James and His Orchestra
TTITLE9=Bobbin' With Bob - Pete Rugolo and His Orchestra
TTITLE10=The Pendulum At Falcon's Lair - Oscar Pettiford and His Orchestra
TTITLE11=Transition - Sun Ra
TTITLE12=Down For Double - Buddy Rich and His Orchestra
TTITLE13=Airegin - Bill Holman and His Orchestra
TTITLE14=Do Nothing Till You Hear From Me - Cootie Williams and Rex Stewart
TTITLE15=An Occasional Man - Flory-Porcino Jazz Wave Orchestra
TTITLE16=Theme For Terry - The Herb Pomeroy Orchestra
TTITLE17=7th Avenue Express - Nat Pierce Orchestra
TTITLE18=Deep Down - Sal Salvador and His Orchestra
TTITLE19=Frolic Sam - Mercer Ellington and His Orchestra
TTITLE20=Go Ahead And Rock - Buddy Johnson and His Orchestra
TTITLE21=Joy Spring - Gil Evans and His Orchestra
TTITLE22=Run Wild - Johnny Richards and His Orchestra
TTITLE23=The song Is You - Terry Gibbs Dream Band
TTITLE24=Black Nightgown - Gerry Mulligan and Concert Jazz Band
EXTD=
EXTT0=
EXTT1=
EXTT2=
EXTT3=
EXTT4=
EXTT5=
EXTT6=
EXTT7=
EXTT8=
EXTT9=
EXTT10=
EXTT11=
EXTT12=
EXTT13=
EXTT14=
EXTT15=
EXTT16=
EXTT17=
EXTT18=
EXTT19=
EXTT20=
EXTT21=
EXTT22=
EXTT23=
EXTT24=
PLAYORDER=
